<svg xmlns="http://www.w3.org/2000/svg" width="1000" height="1000" viewBox="0 0 1000 1000"><rect width="100%" height="100%" fill="#DDDDDD"/><path fill="#999999" d="M234.06 427.335h-15.89v29.13h-16.12v-80.34h32.01q13.85 0 21.79 7.07 7.95 7.06 7.95 18.59t-7.95 18.54q-7.94 7.01-21.79 7.01m-15.89-38.79v26.37h15.89q6.73 0 10.2-3.67 3.48-3.67 3.48-9.35 0-5.79-3.45-9.57t-10.23-3.78zm73.1-18.15v86.07h-16.11v-86.07zm64.39 86.07h-16.11q-.88-2.04-1.51-4.3-.64-2.27-.91-4.64-2.49 4.36-6.54 7.23-4.06 2.87-9.69 2.87-9.38 0-14.45-4.83-5.08-4.83-5.08-13.16 0-8.77 6.76-13.6t19.73-4.83h8.99v-4.74q0-4.31-2.26-6.68-2.27-2.37-6.68-2.37-3.92 0-6.04 1.9-2.13 1.91-2.13 5.27l-15.55-.05-.06-.33q-.39-7.56 6.57-13.05 6.95-5.49 18.26-5.49 10.7 0 17.38 5.43 6.68 5.44 6.68 15.48v24.66q0 4.19.63 7.89t2.01 7.34m-30.84-10.76q4.25 0 7.56-2.1 3.31-2.09 4.47-4.85v-8.44h-8.99q-5.14 0-7.78 2.56-2.65 2.57-2.65 6.21 0 2.98 1.98 4.8 1.99 1.82 5.41 1.82m65.44-.44q4.3 0 6.9-2.51 2.59-2.51 2.59-6.71h14.62l.17.34q.22 9.04-6.82 15.14-7.03 6.1-17.46 6.1-13.35 0-20.58-8.44-7.23-8.45-7.23-21.69v-1.65q0-13.19 7.2-21.69 7.2-8.49 20.55-8.49 11.04 0 17.8 6.29t6.54 16.55l-.11.33h-14.68q0-4.63-2.54-7.7-2.54-3.06-7.01-3.06-6.4 0-9.02 4.97-2.62 4.96-2.62 12.8v1.65q0 8 2.62 12.89 2.62 4.88 9.08 4.88m59.87 12.36q-12.92 0-20.64-8.28-7.73-8.27-7.73-21.02v-2.21q0-13.29 7.32-21.9 7.31-8.61 19.61-8.55 12.08 0 18.76 7.28t6.68 19.7v8.77h-35.65l-.11.33q.44 5.91 3.95 9.71 3.5 3.81 9.52 3.81 5.35 0 8.88-1.08 3.53-1.07 7.72-3.39l4.36 9.93q-3.64 2.98-9.54 4.94-5.91 1.96-13.13 1.96m-1.44-49.55q-4.47 0-7.06 3.42-2.6 3.42-3.2 9l.16.27h19.76v-1.43q0-5.13-2.4-8.2-2.4-3.06-7.26-3.06m50.54-37.68v33.93q2.82-4.08 6.9-6.37t9.05-2.29q9.32 0 14.65 6.2 5.32 6.21 5.32 19.18v35.42h-16.11v-35.53q0-6.96-2.46-9.85-2.45-2.9-7.31-2.9-3.31 0-5.85 1.19-2.53 1.18-4.19 3.34v43.75h-16.11v-86.07zm45.58 56.83v-1.16q0-13.35 7.45-21.88 7.44-8.52 20.63-8.52 13.24 0 20.75 8.49 7.5 8.5 7.5 21.91v1.16q0 13.46-7.48 21.93-7.47 8.47-20.66 8.47-13.24 0-20.72-8.47-7.47-8.47-7.47-21.93m16.05-1.16v1.16q0 8.16 2.87 13.1t9.27 4.94q6.24 0 9.13-4.97 2.9-4.96 2.9-13.07v-1.16q0-7.95-2.92-12.97-2.93-5.02-9.22-5.02-6.23 0-9.13 5.05t-2.9 12.94m67.15-55.67v86.07H611.9v-86.07zm10.76 57.88v-1.16q0-14.13 6.1-22.79 6.09-8.66 17.19-8.66 4.46 0 8.05 1.93t6.29 5.52v-32.72h16.17v86.07h-13.85l-1.33-7.28q-2.81 4.13-6.64 6.29-3.84 2.15-8.81 2.15-10.98 0-17.07-8.06-6.1-8.05-6.1-21.29m16.06-1.16v1.16q0 7.83 2.65 12.33 2.64 4.49 8.6 4.49 3.48 0 6.07-1.4 2.6-1.41 4.25-4.11v-25.44q-1.65-2.81-4.22-4.39-2.57-1.57-5.99-1.57-5.9 0-8.63 5.24t-2.73 13.69m76.64 30.51q-12.91 0-20.64-8.28-7.72-8.27-7.72-21.02v-2.21q0-13.29 7.31-21.9t19.61-8.55q12.09 0 18.76 7.28 6.68 7.28 6.68 19.7v8.77h-35.65l-.11.33q.45 5.91 3.95 9.71 3.5 3.81 9.52 3.81 5.35 0 8.88-1.08 3.53-1.07 7.72-3.39l4.36 9.93q-3.64 2.98-9.54 4.94-5.91 1.96-13.13 1.96m-1.44-49.55q-4.47 0-7.06 3.42t-3.2 9l.16.27h19.76v-1.43q0-5.13-2.4-8.2-2.4-3.06-7.26-3.06m67.92-11.75-1.71 14.29-5.9-.17q-3.59 0-5.9 1.49-2.32 1.49-3.54 4.2v40.33h-16.05v-59.7h14.95l.72 8.83q2.09-4.69 5.43-7.31t7.7-2.62q1.21 0 2.23.19t2.07.47m-434.56 128.83v80.34h-16.11v-80.34zm14.73 20.64h14.95l.67 7.89q2.86-4.3 7.2-6.65 4.33-2.34 10.01-2.34 5.74 0 9.82 2.53 4.08 2.54 6.18 7.67 2.76-4.8 7.17-7.5 4.42-2.7 10.38-2.7 8.83 0 13.93 6.09 5.1 6.1 5.1 18.57v36.14h-16.11v-36.2q0-6.78-2.21-9.43-2.2-2.65-6.56-2.65-3.42 0-5.93 1.52t-4 4.22q0 1.05.05 1.79.06.75.06 1.52v39.23h-16.06v-36.2q0-6.62-2.21-9.35-2.2-2.73-6.62-2.73-3.25 0-5.71 1.24-2.45 1.24-4.05 3.51v43.53h-16.06zm148.92 59.7h-16.11q-.88-2.04-1.52-4.3-.63-2.27-.91-4.64-2.48 4.36-6.54 7.23-4.05 2.87-9.68 2.87-9.38 0-14.46-4.83-5.07-4.83-5.07-13.16 0-8.77 6.76-13.6t19.72-4.83h9v-4.74q0-4.31-2.27-6.68-2.26-2.37-6.67-2.37-3.92 0-6.05 1.9-2.12 1.91-2.12 5.27l-15.56-.05-.05-.33q-.39-7.56 6.56-13.05t18.27-5.49q10.7 0 17.38 5.43 6.67 5.44 6.67 15.48v24.66q0 4.19.64 7.89.63 3.7 2.01 7.34m-30.84-10.76q4.25 0 7.56-2.1 3.31-2.09 4.47-4.85v-8.44h-9q-5.13 0-7.78 2.56-2.65 2.57-2.65 6.21 0 2.98 1.99 4.8t5.41 1.82m37.9-17.44v-1.15q0-14.13 6.15-22.79 6.16-8.66 17.25-8.66 5.02 0 8.83 2.26 3.8 2.26 6.51 6.45l1.27-7.61h13.9v59.42q0 11.65-7.64 18.02t-21.27 6.37q-4.53 0-9.6-1.24-5.08-1.24-9.38-3.39l2.98-12.03q3.69 1.76 7.53 2.67 3.83.91 8.36.91 6.62 0 9.74-2.75 3.11-2.76 3.11-8.61v-5.41q-2.65 3.37-6.23 5.13-3.59 1.77-8.22 1.77-10.98 0-17.14-8.08-6.15-8.09-6.15-21.28m16.11-1.15v1.15q0 7.84 2.65 12.34 2.65 4.49 8.61 4.49 3.7 0 6.26-1.35 2.57-1.35 4.11-3.94v-25.94q-1.54-2.7-4.11-4.19-2.56-1.49-6.15-1.49-5.9 0-8.63 5.24-2.74 5.24-2.74 13.69m76.59 30.51q-12.91 0-20.64-8.28-7.72-8.27-7.72-21.02v-2.21q0-13.29 7.31-21.9t19.61-8.55q12.09 0 18.76 7.28 6.68 7.28 6.68 19.7v8.77h-35.64l-.11.33q.44 5.9 3.94 9.71t9.52 3.81q5.35 0 8.88-1.08 3.53-1.07 7.73-3.39l4.36 9.93q-3.65 2.98-9.55 4.94t-13.13 1.96m-1.44-49.55q-4.47 0-7.06 3.42t-3.2 9l.17.27h19.75v-1.43q0-5.13-2.4-8.2-2.4-3.06-7.26-3.06"/></svg>