<svg width="1000" height="1000" viewBox="0 0 1000 1000" fill="none" xmlns="http://www.w3.org/2000/svg">
<rect width="1000" height="1000" fill="#F1E9E9"/>
<path d="M449.926 436.594C449.926 446.664 445.926 456.321 438.805 463.442C431.684 470.562 422.027 474.562 411.957 474.562C401.887 474.562 392.23 470.562 385.109 463.442C377.989 456.321 373.988 446.664 373.988 436.594C373.988 426.524 377.989 416.866 385.109 409.746C392.23 402.625 401.887 398.625 411.957 398.625C422.027 398.625 431.684 402.625 438.805 409.746C445.926 416.866 449.926 426.524 449.926 436.594Z" fill="#906868"/>
<path d="M335.969 348C325.899 348 316.241 352 309.121 359.121C302 366.241 298 375.899 298 385.969V613.781C298 623.851 302 633.509 309.121 640.629C316.241 647.75 325.899 651.75 335.969 651.75H665.031C675.101 651.75 684.759 647.75 691.879 640.629C699 633.509 703 623.851 703 613.781V385.969C703 375.899 699 366.241 691.879 359.121C684.759 352 675.101 348 665.031 348H335.969ZM665.031 373.312C668.388 373.312 671.607 374.646 673.981 377.019C676.354 379.393 677.688 382.612 677.688 385.969V537.844L582.133 488.56C579.759 487.371 577.071 486.959 574.45 487.381C571.829 487.804 569.407 489.04 567.527 490.914L473.618 584.824L406.287 539.97C403.856 538.351 400.94 537.624 398.033 537.91C395.127 538.196 392.409 539.478 390.34 541.539L323.363 601.125V614.794L323.312 613.781V385.969C323.312 382.612 324.646 379.393 327.019 377.019C329.393 374.646 332.612 373.312 335.969 373.312H665.031Z" fill="#906868"/>
</svg>
